<mxfile host="app.diagrams.net" modified="2023-10-19T09:35:44.305Z" agent="Mozilla/5.0 (Macintosh; Intel Mac OS X 10_15_7) AppleWebKit/537.36 (KHTML, like Gecko) Chrome/117.0.0.0 Safari/537.36" version="22.0.5" etag="ieAPsq0vvrwQIfnw_I_Q" type="github">
  <diagram name="第 1 页" id="z0-10-r30Knb3vr5k5f2">
    <mxGraphModel>
      <root>
        <mxCell id="0" />
        <mxCell id="1" parent="0" />
      </root>
    </mxGraphModel>
  </diagram>
</mxfile>
